<mxfile host="app.diagrams.net" agent="Mozilla/5.0 (Windows NT 10.0; Win64; x64) AppleWebKit/537.36 (KHTML, like Gecko) Chrome/129.0.0.0 Safari/537.36" version="24.7.16">
  <diagram name="Страница — 1" id="o-_t8pJsE90R7URq08UV">
    <mxGraphModel dx="2117" dy="1699" grid="1" gridSize="10" guides="1" tooltips="1" connect="1" arrows="1" fold="1" page="1" pageScale="1" pageWidth="827" pageHeight="1169" math="0" shadow="0">
      <root>
        <mxCell id="0" />
        <mxCell id="1" parent="0" />
        <mxCell id="6YOJ4kojDpQFRinvcUPD-1" value="" style="rounded=0;whiteSpace=wrap;html=1;" vertex="1" parent="1">
          <mxGeometry x="-120" y="-39" width="960" height="619" as="geometry" />
        </mxCell>
        <mxCell id="3oPCn-MdB-oyABH3MXz9-6" value="&lt;span style=&quot;font-weight: 700;&quot;&gt;Item&lt;/span&gt;" style="swimlane;fontStyle=0;childLayout=stackLayout;horizontal=1;startSize=30;horizontalStack=0;resizeParent=1;resizeParentMax=0;resizeLast=0;collapsible=1;marginBottom=0;whiteSpace=wrap;html=1;" parent="1" vertex="1">
          <mxGeometry x="550" y="170" width="220" height="210" as="geometry">
            <mxRectangle x="510" y="190" width="70" height="30" as="alternateBounds" />
          </mxGeometry>
        </mxCell>
        <mxCell id="3oPCn-MdB-oyABH3MXz9-7" value="-&lt;span style=&quot;white-space: pre;&quot;&gt;&#x9;&lt;/span&gt;_id: readonly int&lt;div&gt;-&lt;span style=&quot;white-space: pre;&quot;&gt;&#x9;&lt;/span&gt;_name: string&lt;/div&gt;&lt;div&gt;-&lt;span style=&quot;white-space: pre;&quot;&gt;&#x9;&lt;/span&gt;_info: string&lt;/div&gt;&lt;div&gt;-&lt;span style=&quot;white-space: pre;&quot;&gt;&#x9;&lt;/span&gt;_cost: double&lt;/div&gt;" style="text;strokeColor=none;fillColor=#FFFFFF;align=left;verticalAlign=middle;spacingLeft=4;spacingRight=4;overflow=hidden;points=[[0,0.5],[1,0.5]];portConstraint=eastwest;rotatable=0;whiteSpace=wrap;html=1;" parent="3oPCn-MdB-oyABH3MXz9-6" vertex="1">
          <mxGeometry y="30" width="220" height="80" as="geometry" />
        </mxCell>
        <mxCell id="3oPCn-MdB-oyABH3MXz9-8" value="+&lt;span style=&quot;white-space: pre;&quot;&gt;&#x9;&lt;/span&gt;Name: {get; set;}(): string&lt;div&gt;+&lt;span style=&quot;white-space: pre;&quot;&gt;&#x9;&lt;/span&gt;Info: {get; set;}(): string&lt;br&gt;&lt;/div&gt;&lt;div&gt;+&lt;span style=&quot;white-space: pre;&quot;&gt;&#x9;&lt;/span&gt;Cost: {get; set;}(): double&lt;br&gt;&lt;/div&gt;&lt;div&gt;+&lt;span style=&quot;white-space: pre;&quot;&gt;&#x9;&lt;/span&gt;Item(string&lt;span style=&quot;background-color: initial;&quot;&gt;, string, double): void&lt;/span&gt;&lt;/div&gt;&lt;div&gt;&lt;span style=&quot;background-color: initial;&quot;&gt;+&lt;span style=&quot;white-space: pre;&quot;&gt;&#x9;&lt;/span&gt;Item(): void&lt;/span&gt;&lt;/div&gt;" style="text;strokeColor=none;fillColor=#FFFFFF;align=left;verticalAlign=middle;spacingLeft=4;spacingRight=4;overflow=hidden;points=[[0,0.5],[1,0.5]];portConstraint=eastwest;rotatable=0;whiteSpace=wrap;html=1;" parent="3oPCn-MdB-oyABH3MXz9-6" vertex="1">
          <mxGeometry y="110" width="220" height="100" as="geometry" />
        </mxCell>
        <mxCell id="3oPCn-MdB-oyABH3MXz9-22" value="" style="endArrow=none;html=1;rounded=0;entryX=-0.008;entryY=0.028;entryDx=0;entryDy=0;entryPerimeter=0;exitX=1.002;exitY=0.012;exitDx=0;exitDy=0;exitPerimeter=0;" parent="3oPCn-MdB-oyABH3MXz9-6" source="3oPCn-MdB-oyABH3MXz9-8" target="3oPCn-MdB-oyABH3MXz9-8" edge="1">
          <mxGeometry width="50" height="50" relative="1" as="geometry">
            <mxPoint x="191" y="110" as="sourcePoint" />
            <mxPoint x="410" y="180" as="targetPoint" />
          </mxGeometry>
        </mxCell>
        <mxCell id="3oPCn-MdB-oyABH3MXz9-10" value="&lt;span style=&quot;font-weight: 700;&quot;&gt;Customer&lt;/span&gt;" style="swimlane;fontStyle=0;childLayout=stackLayout;horizontal=1;startSize=30;horizontalStack=0;resizeParent=1;resizeParentMax=0;resizeLast=0;collapsible=1;marginBottom=0;whiteSpace=wrap;html=1;" parent="1" vertex="1">
          <mxGeometry x="-60" y="150" width="250" height="180" as="geometry">
            <mxRectangle x="120" y="200" width="100" height="30" as="alternateBounds" />
          </mxGeometry>
        </mxCell>
        <mxCell id="3oPCn-MdB-oyABH3MXz9-11" value="-&lt;span style=&quot;white-space: pre;&quot;&gt;&#x9;&lt;/span&gt;_id: readonly int&lt;div&gt;-&lt;span style=&quot;white-space: pre;&quot;&gt;&#x9;&lt;/span&gt;_fullname: string&lt;/div&gt;&lt;div&gt;-&lt;span style=&quot;white-space: pre;&quot;&gt;&#x9;&lt;/span&gt;_address: string&lt;/div&gt;" style="text;strokeColor=none;fillColor=#FFFFFF;align=left;verticalAlign=middle;spacingLeft=4;spacingRight=4;overflow=hidden;points=[[0,0.5],[1,0.5]];portConstraint=eastwest;rotatable=0;whiteSpace=wrap;html=1;" parent="3oPCn-MdB-oyABH3MXz9-10" vertex="1">
          <mxGeometry y="30" width="250" height="70" as="geometry" />
        </mxCell>
        <mxCell id="3oPCn-MdB-oyABH3MXz9-12" value="+&lt;span style=&quot;white-space: pre;&quot;&gt;&#x9;&lt;/span&gt;Fullname: {get; set;}(): string&lt;br&gt;&lt;div&gt;+&lt;span style=&quot;white-space: pre;&quot;&gt;&#x9;&lt;/span&gt;Address: {get; set;}(): string&lt;br&gt;&lt;/div&gt;&lt;div&gt;+&lt;span style=&quot;white-space: pre;&quot;&gt;&#x9;&lt;/span&gt;&lt;span style=&quot;background-color: initial;&quot;&gt;Customer(string, string): void&lt;/span&gt;&lt;/div&gt;&lt;div&gt;&lt;span style=&quot;background-color: initial;&quot;&gt;+&lt;span style=&quot;white-space: pre;&quot;&gt;&#x9;&lt;/span&gt;&lt;/span&gt;&lt;span style=&quot;background-color: initial;&quot;&gt;Customer(): void&lt;/span&gt;&lt;/div&gt;" style="text;strokeColor=none;fillColor=#FFFFFF;align=left;verticalAlign=middle;spacingLeft=4;spacingRight=4;overflow=hidden;points=[[0,0.5],[1,0.5]];portConstraint=eastwest;rotatable=0;whiteSpace=wrap;html=1;" parent="3oPCn-MdB-oyABH3MXz9-10" vertex="1">
          <mxGeometry y="100" width="250" height="80" as="geometry" />
        </mxCell>
        <mxCell id="3oPCn-MdB-oyABH3MXz9-23" value="" style="endArrow=none;html=1;rounded=0;exitX=-0.005;exitY=1;exitDx=0;exitDy=0;exitPerimeter=0;entryX=1.003;entryY=1;entryDx=0;entryDy=0;entryPerimeter=0;" parent="3oPCn-MdB-oyABH3MXz9-10" source="3oPCn-MdB-oyABH3MXz9-11" target="3oPCn-MdB-oyABH3MXz9-11" edge="1">
          <mxGeometry width="50" height="50" relative="1" as="geometry">
            <mxPoint x="350" y="-20" as="sourcePoint" />
            <mxPoint x="400" y="-70" as="targetPoint" />
          </mxGeometry>
        </mxCell>
        <mxCell id="3oPCn-MdB-oyABH3MXz9-14" value="&lt;span style=&quot;font-weight: 700;&quot;&gt;IdGenerator&lt;/span&gt;" style="swimlane;fontStyle=0;childLayout=stackLayout;horizontal=1;startSize=30;horizontalStack=0;resizeParent=1;resizeParentMax=0;resizeLast=0;collapsible=1;marginBottom=0;whiteSpace=wrap;html=1;" parent="1" vertex="1">
          <mxGeometry x="290" width="140" height="90" as="geometry">
            <mxRectangle x="320" y="100" width="110" height="30" as="alternateBounds" />
          </mxGeometry>
        </mxCell>
        <mxCell id="3oPCn-MdB-oyABH3MXz9-15" value="-&lt;span style=&quot;white-space: pre;&quot;&gt;&#x9;&lt;/span&gt;_nextId: int" style="text;strokeColor=none;fillColor=#FFFFFF;align=left;verticalAlign=middle;spacingLeft=4;spacingRight=4;overflow=hidden;points=[[0,0.5],[1,0.5]];portConstraint=eastwest;rotatable=0;whiteSpace=wrap;html=1;" parent="3oPCn-MdB-oyABH3MXz9-14" vertex="1">
          <mxGeometry y="30" width="140" height="30" as="geometry" />
        </mxCell>
        <mxCell id="3oPCn-MdB-oyABH3MXz9-16" value="-&lt;span style=&quot;white-space: pre;&quot;&gt;&#x9;&lt;/span&gt;GetNextId(): int" style="text;strokeColor=none;fillColor=#FFFFFF;align=left;verticalAlign=middle;spacingLeft=4;spacingRight=4;overflow=hidden;points=[[0,0.5],[1,0.5]];portConstraint=eastwest;rotatable=0;whiteSpace=wrap;html=1;" parent="3oPCn-MdB-oyABH3MXz9-14" vertex="1">
          <mxGeometry y="60" width="140" height="30" as="geometry" />
        </mxCell>
        <mxCell id="3oPCn-MdB-oyABH3MXz9-18" value="&lt;span style=&quot;font-weight: 700;&quot;&gt;ValueGenerator&lt;/span&gt;" style="swimlane;fontStyle=0;childLayout=stackLayout;horizontal=1;startSize=30;horizontalStack=0;resizeParent=1;resizeParentMax=0;resizeLast=0;collapsible=1;marginBottom=0;whiteSpace=wrap;html=1;" parent="1" vertex="1">
          <mxGeometry x="205" y="400" width="310" height="130" as="geometry">
            <mxRectangle x="310" y="280" width="130" height="30" as="alternateBounds" />
          </mxGeometry>
        </mxCell>
        <mxCell id="3oPCn-MdB-oyABH3MXz9-19" value="-&lt;span style=&quot;white-space: pre;&quot;&gt;&#x9;&lt;/span&gt;AssertStringOnLength(string, int, string): void&lt;div&gt;-&lt;span style=&quot;white-space: pre;&quot;&gt;&#x9;&lt;/span&gt;&lt;span style=&quot;background-color: initial;&quot;&gt;AssertValueInRange(double, int, int, string): void&lt;/span&gt;&lt;/div&gt;" style="text;strokeColor=none;fillColor=#FFFFFF;align=left;verticalAlign=middle;spacingLeft=4;spacingRight=4;overflow=hidden;points=[[0,0.5],[1,0.5]];portConstraint=eastwest;rotatable=0;whiteSpace=wrap;html=1;" parent="3oPCn-MdB-oyABH3MXz9-18" vertex="1">
          <mxGeometry y="30" width="310" height="100" as="geometry" />
        </mxCell>
        <mxCell id="3oPCn-MdB-oyABH3MXz9-35" value="&lt;div&gt;&lt;br&gt;&lt;/div&gt;&lt;div&gt;&lt;br&gt;&lt;/div&gt;" style="endArrow=open;endSize=12;dashed=1;html=1;rounded=0;exitX=1;exitY=0.5;exitDx=0;exitDy=0;entryX=0.5;entryY=0;entryDx=0;entryDy=0;" parent="1" source="3oPCn-MdB-oyABH3MXz9-15" target="3oPCn-MdB-oyABH3MXz9-6" edge="1">
          <mxGeometry width="160" relative="1" as="geometry">
            <mxPoint x="280" y="310" as="sourcePoint" />
            <mxPoint x="440" y="310" as="targetPoint" />
          </mxGeometry>
        </mxCell>
        <mxCell id="3oPCn-MdB-oyABH3MXz9-36" value="&lt;div&gt;&lt;br&gt;&lt;/div&gt;&lt;div&gt;&lt;br&gt;&lt;/div&gt;" style="endArrow=open;endSize=12;dashed=1;html=1;rounded=0;exitX=0;exitY=0.5;exitDx=0;exitDy=0;entryX=0.5;entryY=0;entryDx=0;entryDy=0;" parent="1" source="3oPCn-MdB-oyABH3MXz9-15" target="3oPCn-MdB-oyABH3MXz9-10" edge="1">
          <mxGeometry width="160" relative="1" as="geometry">
            <mxPoint x="340" y="270" as="sourcePoint" />
            <mxPoint x="500" y="270" as="targetPoint" />
          </mxGeometry>
        </mxCell>
        <mxCell id="3oPCn-MdB-oyABH3MXz9-37" value="" style="endArrow=open;endSize=12;dashed=1;html=1;rounded=0;exitX=0;exitY=0.5;exitDx=0;exitDy=0;entryX=0.495;entryY=1.015;entryDx=0;entryDy=0;entryPerimeter=0;" parent="1" source="3oPCn-MdB-oyABH3MXz9-19" target="3oPCn-MdB-oyABH3MXz9-12" edge="1">
          <mxGeometry width="160" relative="1" as="geometry">
            <mxPoint x="340" y="270" as="sourcePoint" />
            <mxPoint x="500" y="270" as="targetPoint" />
          </mxGeometry>
        </mxCell>
        <mxCell id="3oPCn-MdB-oyABH3MXz9-38" value="" style="endArrow=open;endSize=12;dashed=1;html=1;rounded=0;entryX=0.499;entryY=1.004;entryDx=0;entryDy=0;entryPerimeter=0;exitX=1;exitY=0.5;exitDx=0;exitDy=0;" parent="1" source="3oPCn-MdB-oyABH3MXz9-19" target="3oPCn-MdB-oyABH3MXz9-8" edge="1">
          <mxGeometry width="160" relative="1" as="geometry">
            <mxPoint x="340" y="270" as="sourcePoint" />
            <mxPoint x="500" y="270" as="targetPoint" />
          </mxGeometry>
        </mxCell>
      </root>
    </mxGraphModel>
  </diagram>
</mxfile>
